# xmcd
# 
# Track frame offsets:
#     150
#     15589
#     29824
#     40634
#     54569
#     65808
#     83123
#     100727
#     118504
#     130034
#     142507
#     155137
#     167145
#     186616
#     200566
#     220060
#     236962
#     252067
#     263718
#     280987
# 
# Disc length: 3907
# 
# Revision: 1
# Processed by: cddbd v1.5.2PL0 Copyright (c) Steve Scherf et al.
# Submitted via: BonkEnc v1.0.8
# 
DISCID=240f4114
DTITLE=Audry Auld - Resurrection Moon
DYEAR=0
DGENRE=Country
TTITLE0=Resurrection Moon
TTITLE1=Losing Faith
TTITLE2=I'd Leave Me Too
TTITLE3=Bolinas
TTITLE4=Doin" Well
TTITLE5=Black Cloud
TTITLE6=Down In A Hole
TTITLE7=Song For Clax
TTITLE8=Your Eyes
TTITLE9=Not Who I Am
TTITLE10=Looking For Luckenbach
TTITLE11=Ball and Chain
TTITLE12=Last Seen In Gainesville
TTITLE13=Love You Like The Earth
TTITLE14=Hole In My Heart
TTITLE15=My Father
TTITLE16=Next Big Nothing
TTITLE17=Jellyroll
TTITLE18=Buck Hungry
TTITLE19=Everything Be Alright
EXTD=
EXTT0=
EXTT1=
EXTT2=
EXTT3=
EXTT4=
EXTT5=
EXTT6=
EXTT7=
EXTT8=
EXTT9=
EXTT10=
EXTT11=
EXTT12=
EXTT13=
EXTT14=
EXTT15=
EXTT16=
EXTT17=
EXTT18=
EXTT19=
PLAYORDER=
